<?xml version="1.0" standalone="no"?>
<!DOCTYPE svg PUBLIC "-//W3C//DTD SVG 20010904//EN"
 "http://www.w3.org/TR/2001/REC-SVG-20010904/DTD/svg10.dtd">
<svg version="1.0" xmlns="http://www.w3.org/2000/svg"
 width="1024.000000pt" height="1024.000000pt" viewBox="0 0 1024.000000 1024.000000"
 preserveAspectRatio="xMidYMid meet">

<g transform="translate(0.000000,1024.000000) scale(0.100000,-0.100000)"
fill="#000000" stroke="none">
<path d="M4845 9504 c-322 -24 -706 -94 -969 -176 -867 -268 -1564 -800 -2081
-1587 -447 -679 -675 -1457 -675 -2303 0 -291 60 -838 92 -838 6 0 25 15 42
32 28 29 35 46 50 128 45 247 78 516 116 955 23 262 52 449 110 715 23 102 61
295 86 430 46 248 57 306 74 371 9 33 18 39 107 82 54 26 104 47 110 47 7 0
22 18 33 40 34 66 147 237 227 343 405 534 951 953 1561 1196 740 296 1511
347 2295 155 654 -161 1231 -488 1718 -974 224 -223 387 -430 538 -682 29 -49
57 -88 63 -88 22 0 160 -105 201 -153 181 -215 251 -444 320 -1044 l5 -43 -49
0 c-27 0 -49 -4 -49 -9 0 -41 41 -188 80 -287 83 -210 116 -401 107 -599 -10
-193 -66 -374 -147 -473 -36 -44 -37 -52 -7 -52 32 0 103 -23 166 -54 30 -14
56 -25 57 -23 7 7 55 267 71 387 15 109 18 202 18 480 -1 302 -4 365 -23 505
-85 602 -241 1077 -507 1541 -324 564 -765 1034 -1280 1361 -528 335 -1047
515 -1730 599 -123 15 -610 27 -730 18z"/>
<path d="M4770 8924 c-459 -45 -853 -155 -1227 -343 -211 -105 -351 -196 -553
-357 -206 -164 -560 -537 -527 -555 33 -19 180 -22 246 -5 76 19 95 32 236
160 478 433 986 691 1566 796 373 67 879 65 1224 -5 313 -63 564 -149 825
-281 253 -128 496 -296 730 -504 63 -56 134 -114 158 -130 55 -36 153 -55 242
-46 123 11 123 8 28 121 -194 233 -430 445 -663 597 -506 330 -1022 507 -1630
558 -162 13 -490 11 -655 -6z"/>
<path d="M4280 7449 c-309 -20 -908 -73 -917 -82 -5 -6 -15 -123 -38 -462 -18
-279 -29 -424 -55 -750 -11 -137 -34 -436 -50 -664 -16 -228 -35 -477 -41
-553 -6 -76 -10 -140 -8 -142 2 -1 123 3 269 10 146 6 434 17 640 24 206 7
376 13 376 14 1 0 4 118 8 260 l7 259 -188 -7 c-103 -3 -257 -9 -342 -13
l-154 -6 7 159 c3 87 9 212 13 276 l6 117 61 6 c34 3 162 9 286 13 l225 7 9
253 c5 139 6 255 3 258 -4 5 -342 -8 -517 -19 -30 -2 -35 1 -33 18 1 11 6 117
13 235 6 118 14 218 18 221 4 4 153 14 331 23 179 9 326 18 327 19 1 1 4 122
8 270 l7 267 -68 -1 c-37 -1 -129 -6 -203 -10z"/>
<path d="M4941 7072 c-35 -213 -97 -576 -137 -807 -41 -231 -103 -591 -139
-800 -36 -209 -75 -426 -85 -483 -11 -57 -20 -110 -20 -118 0 -12 38 -14 267
-12 l268 3 12 95 c7 52 21 158 31 235 l18 140 201 3 200 2 6 -27 c3 -16 15
-124 28 -240 l23 -213 111 0 c60 0 187 -3 281 -7 l172 -6 -9 49 c-5 27 -43
229 -84 449 -41 220 -92 499 -114 620 -22 121 -54 292 -70 380 -17 88 -70 377
-118 643 l-87 482 -346 0 -345 0 -64 -388z m484 -772 c30 -239 59 -459 64
-487 l8 -53 -140 0 -139 0 7 58 c3 31 22 172 40 312 18 140 46 354 62 475 23
187 29 213 35 175 4 -25 32 -241 63 -480z"/>
<path d="M5941 7378 c0 -40 6 -161 12 -268 l12 -195 188 -11 c103 -6 189 -13
191 -15 5 -5 21 -331 41 -824 8 -203 20 -473 25 -600 6 -126 12 -293 15 -370
3 -77 8 -168 11 -202 l5 -61 72 -6 c167 -12 469 -27 473 -23 3 3 -9 207 -25
453 -24 350 -85 1281 -103 1572 -4 51 -18 49 213 27 89 -9 164 -14 166 -11 2
2 -1 116 -9 252 l-13 249 -120 12 c-291 29 -781 69 -965 78 -63 3 -132 8 -152
10 l-38 5 1 -72z"/>
<path d="M2505 7249 c-213 -37 -580 -112 -589 -120 -9 -8 -10 -10 -85 -509
-139 -916 -286 -1968 -277 -1977 1 -1 69 6 152 17 82 11 248 32 369 46 492 56
606 93 760 248 92 92 146 187 189 326 59 191 72 481 28 604 -43 118 -99 175
-209 212 l-65 22 71 37 c163 86 252 258 282 546 13 120 3 245 -27 337 -34 106
-136 198 -246 221 -74 16 -229 12 -353 -10z m49 -443 c48 -20 67 -68 69 -174
2 -106 -23 -212 -64 -277 -22 -34 -43 -52 -82 -70 -48 -22 -175 -50 -185 -40
-2 2 1 48 7 102 36 322 52 448 59 454 20 20 153 23 196 5z m-63 -999 c44 -29
58 -71 58 -178 2 -206 -59 -351 -167 -397 -36 -16 -175 -42 -221 -42 -4 0 2
73 18 205 6 44 17 143 26 220 25 224 16 203 83 208 150 9 168 8 203 -16z"/>
<path d="M7606 7250 c-106 -34 -196 -112 -249 -216 -83 -162 -77 -473 12 -682
81 -191 211 -324 556 -568 111 -78 201 -168 234 -235 71 -142 63 -307 -16
-337 -87 -33 -161 -16 -218 50 -43 51 -65 114 -85 248 l-15 105 -165 11 c-91
7 -202 15 -247 18 l-83 7 6 -48 c30 -264 78 -423 170 -566 89 -138 199 -222
361 -278 96 -33 101 -33 273 -34 146 0 184 3 230 19 171 59 265 161 315 341
22 80 31 290 16 384 -20 124 -67 250 -133 353 -93 143 -220 259 -473 433 -123
83 -216 179 -257 262 -29 59 -33 79 -36 160 l-4 93 36 36 c34 34 39 36 90 32
67 -6 112 -36 136 -94 24 -54 39 -138 41 -227 2 -77 -4 -72 114 -82 80 -7 292
-41 318 -51 21 -8 22 17 7 151 -47 410 -242 647 -593 719 -106 22 -266 20
-341 -4z"/>
<path d="M4276 4446 c-7 -126 -25 -666 -26 -734 l0 -33 98 3 97 3 3 183 2 182
91 0 91 0 -7 -180 -8 -180 96 0 96 0 5 43 c3 23 8 148 11 277 3 129 8 310 11
403 l7 167 -102 0 -101 0 0 -88 c0 -49 -3 -130 -6 -180 l-7 -92 -85 0 -84 0 7
180 7 181 -95 -2 -95 -2 -6 -131z"/>
<path d="M5041 4332 c-30 -136 -73 -336 -96 -445 l-42 -198 101 3 101 3 14 73
13 72 99 0 98 0 12 -75 13 -75 107 0 106 0 -28 113 c-15 61 -60 262 -100 445
l-73 332 -135 0 -136 0 -54 -248z m222 -129 c15 -87 30 -170 33 -185 l6 -28
-71 0 c-39 0 -71 3 -71 8 0 4 9 54 20 112 11 58 25 138 32 178 6 39 14 72 17
72 4 0 19 -71 34 -157z"/>
<path d="M5620 4577 c-3 -3 -2 -97 2 -209 5 -111 11 -311 15 -443 l8 -240 94
-3 93 -3 -6 168 c-4 92 -9 209 -11 258 l-5 90 29 -75 c16 -41 65 -156 108
-255 l79 -180 103 -3 103 -3 -6 48 c-3 26 -11 224 -17 438 -6 215 -12 391 -13
391 0 1 -43 4 -94 6 l-94 4 7 -140 c4 -78 10 -190 15 -251 8 -109 7 -135 -6
-99 -10 28 -147 348 -183 427 l-30 67 -64 0 c-36 0 -77 3 -93 6 -16 3 -31 3
-34 1z"/>
<path d="M3476 4549 c-104 -5 -190 -10 -191 -11 -4 -5 -34 -436 -45 -648 -6
-107 -12 -207 -15 -222 -5 -34 -19 -33 288 -16 l217 11 0 90 0 89 -42 -6 c-24
-3 -90 -8 -148 -12 l-105 -6 3 88 c2 49 5 94 7 101 3 9 42 13 132 15 l128 3 3
87 3 87 -48 -4 c-26 -2 -85 -7 -130 -9 l-82 -5 6 92 c3 51 6 93 7 94 1 1 66 3
145 4 92 1 144 6 146 13 2 6 6 48 8 94 l5 82 -51 -2 c-29 0 -137 -5 -241 -9z"/>
<path d="M6329 4556 c-2 -2 -1 -82 2 -178 4 -95 10 -293 14 -440 l7 -268 93 0
93 0 -5 183 c-3 100 -8 212 -12 250 -4 37 -6 67 -4 67 1 0 10 -17 18 -37 9
-21 59 -135 112 -254 l96 -217 94 -7 c52 -4 96 -5 97 -3 2 1 -3 111 -10 243
-7 132 -18 327 -23 433 -6 106 -13 197 -15 201 -3 4 -44 8 -91 10 l-87 2 7
-148 c3 -81 11 -190 16 -242 5 -52 8 -95 6 -97 -2 -2 -15 24 -29 59 -14 34
-63 146 -109 250 l-83 187 -77 0 c-43 0 -84 2 -91 5 -8 3 -16 4 -19 1z"/>
<path d="M1268 4495 c-42 -25 -97 -65 -124 -88 -111 -98 -239 -314 -286 -483
-18 -67 -22 -105 -22 -244 0 -150 3 -178 33 -310 71 -315 286 -1075 377 -1335
69 -195 145 -324 270 -455 156 -164 344 -255 594 -289 41 -5 76 -9 77 -7 1 1
-40 128 -92 282 -117 349 -379 1151 -479 1469 -143 455 -154 532 -137 980 6
159 14 310 17 335 l6 45 -72 59 c-39 33 -74 65 -78 73 -6 10 -26 2 -84 -32z"/>
<path d="M8738 4297 c7 -405 -31 -744 -124 -1122 -69 -277 -203 -725 -430
-1432 -79 -248 -144 -454 -144 -457 0 -21 203 13 325 54 292 99 498 307 628
635 80 202 315 1085 394 1480 13 65 17 134 17 250 -1 144 -4 169 -28 250 -100
332 -320 549 -590 581 l-52 6 4 -245z"/>
<path d="M7185 4520 c-7 -12 -175 -843 -175 -867 0 -8 34 -13 100 -15 113 -3
105 -10 115 90 l7 64 97 -4 96 -4 20 -79 c11 -43 25 -80 30 -81 30 -8 213 -10
209 -2 -7 10 -118 407 -194 691 l-54 197 -30 1 c-17 0 -73 4 -124 7 -52 4 -95
5 -97 2z m169 -388 c21 -97 41 -183 43 -189 4 -10 -13 -13 -66 -13 -84 0 -79
-17 -51 170 11 74 20 152 20 173 0 74 16 33 54 -141z"/>
<path d="M2878 4510 c-38 -3 -70 -9 -73 -11 -6 -6 -92 -211 -112 -267 -14 -39
-33 -49 -33 -17 0 22 -62 249 -70 258 -4 5 -50 5 -102 1 l-95 -7 83 -253 84
-253 -18 -176 c-10 -97 -15 -178 -12 -180 3 -2 48 2 100 8 l95 12 12 140 c6
77 14 154 17 171 4 32 71 182 192 429 38 77 70 143 72 148 4 8 -42 7 -140 -3z"/>
<path d="M7695 4458 c3 -18 12 -127 20 -243 29 -402 47 -600 53 -607 4 -3 49
-8 100 -10 50 -1 92 -3 92 -3 -1 0 -30 336 -30 350 0 19 6 20 94 17 l93 -3 7
-77 c3 -42 9 -127 13 -188 l6 -112 101 -10 c56 -5 102 -9 103 -8 1 1 -3 51 -9
111 -5 61 -22 261 -36 445 l-27 335 -95 6 c-52 4 -97 5 -99 3 -4 -3 16 -278
24 -328 l5 -28 -91 6 c-50 3 -95 9 -100 12 -5 3 -9 33 -10 67 0 34 -6 114 -12
177 l-12 115 -98 3 -98 3 6 -33z"/>
<path d="M2015 4433 c-77 -8 -146 -16 -152 -18 -7 -2 -13 -17 -13 -32 0 -16
-15 -159 -34 -318 -42 -357 -60 -525 -54 -530 2 -2 85 4 184 14 246 25 303 52
363 173 26 51 31 73 31 131 0 83 -22 127 -78 157 -21 10 -32 19 -25 20 25 0
81 62 103 112 30 70 26 187 -7 234 -47 66 -117 78 -318 57z m133 -156 c6 -7
12 -23 13 -37 9 -98 -18 -137 -104 -149 l-58 -8 5 36 c3 20 8 66 12 104 l6 67
58 0 c34 0 62 -5 68 -13z m-26 -354 c14 -12 18 -31 18 -77 0 -65 -14 -97 -51
-117 -26 -13 -118 -28 -124 -19 -4 7 14 206 21 229 6 19 111 7 136 -16z"/>
<path d="M3849 3831 c-38 -39 -40 -97 -5 -138 20 -23 32 -28 70 -28 58 0 95
33 103 93 5 36 2 45 -25 72 -42 42 -101 42 -143 1z"/>
<path d="M3453 3375 c-62 -8 -119 -15 -126 -17 -11 -2 7 -78 83 -343 295
-1026 333 -1169 338 -1250 8 -151 -57 -258 -191 -314 -40 -16 -75 -27 -78 -23
-3 4 -23 72 -43 152 -32 121 -197 703 -315 1105 -97 334 -143 491 -169 575
l-28 95 -50 -3 c-48 -3 -367 -42 -371 -46 -1 -1 13 -49 32 -106 18 -58 67
-213 109 -345 41 -132 129 -413 196 -625 141 -447 251 -800 310 -989 l42 -133
57 7 c106 12 296 54 360 80 245 96 375 291 374 560 0 79 -8 135 -37 265 -32
138 -307 1240 -334 1335 -10 36 -13 37 -159 20z"/>
<path d="M6623 3294 c-13 -49 -32 -123 -43 -164 -56 -204 -242 -953 -270
-1085 -74 -354 -40 -557 120 -715 109 -109 238 -162 482 -199 160 -25 167 -25
173 -8 105 324 659 2177 653 2183 -4 3 -242 31 -338 39 l-75 7 -26 -94 c-15
-51 -70 -241 -124 -423 -53 -181 -119 -404 -145 -495 -27 -91 -67 -228 -90
-305 -61 -208 -160 -570 -160 -586 -1 -36 -15 -39 -80 -17 -137 46 -219 180
-208 336 4 43 50 226 131 512 70 245 166 587 215 760 l88 315 -30 7 c-17 4
-81 10 -141 14 l-110 7 -22 -89z"/>
<path d="M2070 3269 c-252 -37 -275 -43 -272 -65 9 -48 351 -1122 508 -1592
46 -139 98 -282 116 -319 47 -96 105 -156 195 -200 72 -36 80 -37 200 -41
l125 -4 -7 22 c-4 12 -15 50 -25 84 -18 63 -101 321 -312 971 -66 204 -165
510 -220 680 -56 171 -113 348 -129 395 -15 47 -33 86 -41 86 -7 1 -69 -7
-138 -17z"/>
<path d="M7956 3093 c-155 -522 -272 -899 -477 -1529 -87 -271 -159 -496 -159
-502 0 -5 30 -12 68 -16 176 -17 332 58 412 199 52 93 326 979 528 1715 39
140 74 263 77 273 5 11 2 17 -6 17 -8 0 -88 9 -179 20 -91 11 -174 20 -185 20
-18 0 -28 -26 -79 -197z"/>
</g>
</svg>
